<mxfile host="app.diagrams.net" modified="2024-05-09T04:46:06.986Z" agent="Mozilla/5.0 (X11; Linux x86_64) AppleWebKit/537.36 (KHTML, like Gecko) Chrome/124.0.0.0 Safari/537.36" version="24.3.1" etag="bvL64_5e_lIEnS-V7qX2" type="github">
  <diagram name="Page-1" id="2lKPB6G0regEdDibs2Pk">
    <mxGraphModel>
      <root>
        <mxCell id="0" />
        <mxCell id="1" parent="0" />
      </root>
    </mxGraphModel>
  </diagram>
</mxfile>
